<svg width="40" height="40" viewBox="0 0 40 40" xmlns="http://www.w3.org/2000/svg">
    <!-- Black background -->
    <rect width="40" height="40" rx="8" fill="#000000"/>

    <!-- White drawing: simple gear (symbol of plugins/tools) -->
    <path d="M20 13a7 7 0 100 14 7 7 0 000-14zm0 11a4 4 0 110-8 4 4 0 010 8zm10.5-4.5l2.3-1.3-1.2-2-2.6.6a8.94 8.94 0 00-1.8-1l-.4-2.7h-2.3l-.4 2.7a8.94 8.94 0 00-1.8 1l-2.6-.6-1.2 2 2.3 1.3a8.94 8.94 0 000 2.1l-2.3 1.3 1.2 2 2.6-.6c.55.43 1.15.78 1.8 1l.4 2.7h2.3l.4-2.7c.65-.22 1.25-.57 1.8-1l2.6.6 1.2-2-2.3-1.3c.07-.34.07-1.73 0-2.1z"
          fill="#FFFFFF"/>
</svg>
